<svg width="28" height="28" viewBox="0 0 28 28" fill="none" xmlns="http://www.w3.org/2000/svg">
<rect width="28" height="28" fill="white"/>
<path d="M2.348 10.32H6.968L7.664 9.432C7.664 9.432 8.432 10.044 8.9 10.464C8.864 10.596 8.744 10.656 8.576 10.656H2.444L2.348 10.32ZM2.312 15.048H7.064L7.748 14.16C7.748 14.16 8.528 14.76 8.996 15.192C8.96 15.324 8.84 15.384 8.672 15.384H2.408L2.312 15.048ZM6.68 10.32H7.916V13.284C7.916 14.112 7.748 14.604 6.512 14.724C6.5 14.376 6.476 14.1 6.38 13.932C6.272 13.776 6.128 13.644 5.732 13.584V13.416C5.732 13.416 6.332 13.464 6.5 13.464C6.644 13.464 6.68 13.392 6.68 13.272V10.32ZM6.716 15.048H7.976V18.96C7.976 19.788 7.772 20.316 6.344 20.424C6.332 20.064 6.272 19.788 6.116 19.608C5.96 19.44 5.72 19.308 5.168 19.224V19.068C5.168 19.068 6.248 19.14 6.476 19.14C6.668 19.14 6.716 19.056 6.716 18.924V15.048ZM3.584 11.46H5.372V11.796H3.584V11.46ZM3.584 13.26H5.372V13.596H3.584V13.26ZM2.984 11.46V10.956L4.268 11.46H4.112V14.016C4.112 14.1 3.752 14.352 3.176 14.352H2.984V11.46ZM4.844 11.46H4.748L5.264 10.932L6.332 11.736C6.284 11.808 6.164 11.88 5.984 11.916V13.824C5.972 13.908 5.408 14.136 5.048 14.136H4.844V11.46ZM3.62 16.188H5.408V16.524H3.62V16.188ZM3.62 18H5.408V18.336H3.62V18ZM2.948 16.188V15.684L4.256 16.188H4.1V18.912C4.1 18.996 3.74 19.26 3.152 19.26H2.948V16.188ZM4.868 16.188H4.772L5.288 15.648L6.368 16.452C6.32 16.524 6.188 16.608 6.02 16.632V18.576C6.008 18.672 5.432 18.876 5.06 18.876H4.868V16.188ZM9.38 11.808H12.788V12.156H9.26L9.38 11.808ZM12.128 11.808H11.984L12.644 11.148L13.796 12.252C13.7 12.348 13.568 12.372 13.316 12.396C12.92 12.996 12.224 13.884 11.672 14.424L11.54 14.34C11.756 13.644 12.02 12.468 12.128 11.808ZM9.74 11.808H11.024C10.964 15.396 10.916 18.444 7.868 20.544L7.712 20.376C9.812 18.036 9.716 15.096 9.74 11.808ZM9.404 9.324L11.192 9.816C11.144 9.972 11 10.08 10.724 10.08C10.184 11.808 9.344 13.164 8.24 14.076L8.084 13.98C8.696 12.792 9.212 11.052 9.404 9.324ZM11.024 11.808C11.168 15.36 11.768 17.676 13.76 18.96L13.748 19.104C13.112 19.26 12.716 19.764 12.596 20.556C11.168 19.044 10.904 15.696 10.82 11.832L11.024 11.808ZM14.852 10.212H16.772L17.396 9.396C17.396 9.396 18.104 9.96 18.536 10.356C18.5 10.488 18.38 10.548 18.212 10.548H14.948L14.852 10.212ZM19.052 12.192H21.656L22.268 11.352C22.268 11.352 22.988 11.928 23.396 12.336C23.372 12.468 23.252 12.528 23.084 12.528H19.148L19.052 12.192ZM14.816 13.296H16.856L17.456 12.504C17.456 12.504 18.14 13.056 18.548 13.44C18.512 13.572 18.404 13.632 18.236 13.632H14.912L14.816 13.296ZM14.816 14.868H16.856L17.456 14.076C17.456 14.076 18.14 14.628 18.548 15.012C18.512 15.144 18.404 15.204 18.236 15.204H14.912L14.816 14.868ZM14.348 11.736H17.36L17.984 10.92C17.984 10.92 18.692 11.484 19.112 11.892C19.088 12.024 18.956 12.084 18.8 12.084H14.444L14.348 11.736ZM14.828 16.476V15.948L16.112 16.476H17.912V16.812H16.064V20.184C16.064 20.292 15.524 20.58 15.008 20.58H14.828V16.476ZM17.24 16.476H17.132L17.708 15.84L18.944 16.776C18.86 16.86 18.716 16.956 18.488 16.992V19.968C18.488 20.064 17.876 20.328 17.444 20.328H17.24V16.476ZM15.464 19.164H17.888V19.512H15.464V19.164ZM19.304 13.92V13.416L20.516 13.92H21.98V14.256H20.48V17.808C20.48 17.916 19.964 18.18 19.472 18.18H19.304V13.92ZM21.596 13.92H21.476L22.04 13.308L23.228 14.208C23.156 14.292 23 14.388 22.784 14.436V17.616C22.772 17.7 22.196 17.964 21.788 17.964H21.596V13.92ZM19.976 16.728H22.184V17.076H19.976V16.728ZM18.872 10.296H24.356V10.632H18.98L18.872 10.296ZM23.72 10.296H23.6L24.224 9.576L25.568 10.608C25.484 10.704 25.316 10.812 25.064 10.86V18.924C25.064 19.848 24.86 20.388 23.228 20.532C23.18 20.1 23.108 19.776 22.904 19.584C22.676 19.38 22.376 19.224 21.716 19.116V18.948C21.716 18.948 23.156 19.044 23.444 19.044C23.66 19.044 23.72 18.948 23.72 18.768V10.296Z" fill="black"/>
</svg>
