<svg width="13" height="13" viewBox="0 0 13 13" fill="none" xmlns="http://www.w3.org/2000/svg">
<path d="M4.72375 0.833344V2.32495H2.47375V3.81656H4.72375V5.30817C2.66125 5.30817 0.973755 7.00115 0.973755 9.05957C0.973755 11.1254 2.66875 12.811 4.74625 12.811C5.39125 12.811 6.01375 12.5947 6.52375 12.2143C6.69625 12.4232 6.88375 12.632 7.08625 12.8333L8.14375 11.7743C7.94875 11.5878 7.77625 11.3865 7.61875 11.1926L8.36875 10.4468C9.17125 9.64876 9.80876 8.46293 10.2888 7.23981C10.9563 7.62763 11.4738 8.21681 11.4738 9.0372C11.4738 10.0217 11.0763 10.9763 10.3788 11.6773L11.4363 12.7289C12.4188 11.7519 12.9738 10.4244 12.9738 9.0372C12.9738 7.57542 12.0888 6.32247 10.8363 5.71837L11.0988 4.77865L9.63626 4.39829L9.38126 5.34546C9.32126 5.34546 9.26875 5.30817 9.20125 5.30817H6.22375V3.81656H9.97375V2.32495H6.22375V0.833344M6.22375 6.79978H8.84875C8.42875 7.82153 7.86625 8.82837 7.30375 9.38772L6.81625 9.87996C6.41125 8.98499 6.22375 7.98561 6.22375 6.79978ZM4.72375 6.79978C4.72375 8.3436 5.03126 9.73825 5.69876 10.9688C5.42876 11.1926 5.09875 11.3194 4.74625 11.3194C3.47125 11.3194 2.47375 10.3274 2.47375 9.05957C2.47375 7.79916 3.46375 6.79978 4.72375 6.79978Z" fill="black"/>
</svg>
