<svg width="13" height="14" viewBox="0 0 13 14" fill="none" xmlns="http://www.w3.org/2000/svg">
<path d="M1 4.80838V3.17648C1 3.02132 1.06164 2.87252 1.17135 2.76281C1.28106 2.6531 1.42986 2.59146 1.58502 2.59146H11.3887C11.5439 2.59146 11.6927 2.6531 11.8024 2.76281C11.9121 2.87252 11.9737 3.02132 11.9737 3.17648V4.80838" stroke="black" stroke-linecap="square" stroke-linejoin="round"/>
<path d="M6.48682 0.833344V2.59148" stroke="black" stroke-linecap="square" stroke-linejoin="round"/>
<path d="M2.61658 4.80844H10.0063L6.48695 7.33942V11.5885C6.48576 11.7677 6.44614 11.9446 6.37077 12.1072C6.2954 12.2698 6.18602 12.4144 6.05003 12.5311C5.91403 12.6478 5.75458 12.7341 5.58243 12.7839C5.41028 12.8338 5.22944 12.8461 5.05211 12.8201L3.35555 12.5707" stroke="black" stroke-linecap="square" stroke-linejoin="round"/>
<path d="M1 8.36163H11.9737" stroke="black" stroke-linecap="square" stroke-linejoin="round"/>
</svg>
