<svg width="13" height="13" viewBox="0 0 13 13" fill="none" xmlns="http://www.w3.org/2000/svg">
<path d="M12.5452 11.1191H11.9181L8.41697 1.41433C8.3593 1.24486 8.25001 1.09771 8.10445 0.993514C7.9589 0.889318 7.78437 0.833308 7.60536 0.833344H6.34215C6.16314 0.833308 5.98861 0.889318 5.84306 0.993514C5.6975 1.09771 5.58821 1.24486 5.53054 1.41433L2.02938 11.1191H1.40233C1.28866 11.1191 1.17965 11.1642 1.09928 11.2446C1.01891 11.325 0.973755 11.434 0.973755 11.5476L0.973755 12.4048C0.973755 12.5184 1.01891 12.6274 1.09928 12.7078C1.17965 12.7882 1.28866 12.8333 1.40233 12.8333H4.8309C4.94456 12.8333 5.05357 12.7882 5.13394 12.7078C5.21432 12.6274 5.25947 12.5184 5.25947 12.4048V11.5476C5.25947 11.434 5.21432 11.325 5.13394 11.2446C5.05357 11.1642 4.94456 11.1191 4.8309 11.1191H4.30643L4.93054 9.40477H9.01697L9.64108 11.1191H9.11661C9.00295 11.1191 8.89394 11.1642 8.81357 11.2446C8.73319 11.325 8.68804 11.434 8.68804 11.5476V12.4048C8.68804 12.5184 8.73319 12.6274 8.81357 12.7078C8.89394 12.7882 9.00295 12.8333 9.11661 12.8333H12.5452C12.6588 12.8333 12.7679 12.7882 12.8482 12.7078C12.9286 12.6274 12.9738 12.5184 12.9738 12.4048V11.5476C12.9738 11.434 12.9286 11.325 12.8482 11.2446C12.7679 11.1642 12.6588 11.1191 12.5452 11.1191ZM5.71081 7.26192L6.97375 3.79343L8.2367 7.26192H5.71081Z" fill="black"/>
</svg>
