<svg width="24" height="25" viewBox="0 0 24 25" fill="none" xmlns="http://www.w3.org/2000/svg">
<path fill-rule="evenodd" clip-rule="evenodd" d="M19.0984 10.9717C15.2302 8.67455 8.85004 8.46324 5.15729 9.58396C4.56434 9.764 3.93728 9.42918 3.75759 8.83622C3.5779 8.24291 3.91236 7.6162 4.50585 7.43598C8.74456 6.14936 15.791 6.39778 20.244 9.04118C20.7774 9.3578 20.9525 10.0467 20.6362 10.5791C20.3198 11.1125 19.6305 11.2883 19.0984 10.9717ZM18.9717 14.3741C18.7005 14.8144 18.1247 14.9524 17.6849 14.6821C14.46 12.6998 9.54265 12.1256 5.72728 13.2838C5.23256 13.4332 4.70993 13.1543 4.55974 12.6604C4.41062 12.1657 4.68978 11.6441 5.18362 11.4936C9.54194 10.1711 14.96 10.8116 18.6639 13.0878C19.1037 13.3587 19.242 13.9347 18.9717 14.3741ZM17.5034 17.6416C17.2877 17.9951 16.8272 18.1059 16.4749 17.8905C13.6571 16.1682 10.1102 15.7793 5.93312 16.7334C5.53063 16.8256 5.12938 16.5733 5.03768 16.171C4.94545 15.7685 5.1967 15.3673 5.60025 15.2754C10.1713 14.2305 14.0923 14.6801 17.2552 16.6131C17.6078 16.8283 17.719 17.2891 17.5034 17.6416ZM12 0.333374C5.37268 0.333374 0 5.70587 0 12.3332C0 18.9612 5.37268 24.3334 12 24.3334C18.6275 24.3334 24 18.9612 24 12.3332C24 5.70587 18.6275 0.333374 12 0.333374Z" fill="#1ED760"/>
</svg>
